<svg width="15" height="15" viewBox="0 0 15 15" fill="none" xmlns="http://www.w3.org/2000/svg">
<path d="M0.20625 6.14582L3.35625 2.99582C3.53125 2.82082 3.7375 2.69582 3.975 2.62082C4.2125 2.54582 4.45625 2.53332 4.70625 2.58332L5.68125 2.78957C5.00625 3.58957 4.475 4.31457 4.0875 4.96457C3.7 5.61457 3.325 6.40207 2.9625 7.32707L0.20625 6.14582V6.14582M4.05 7.85207C4.3375 6.95207 4.72813 6.10207 5.22188 5.30207C5.71563 4.50207 6.3125 3.75207 7.0125 3.05207C8.1125 1.95207 9.36875 1.13019 10.7812 0.586441C12.1938 0.0426911 13.5125 -0.122934 14.7375 0.0895661C14.95 1.31457 14.7875 2.63332 14.25 4.04582C13.7125 5.45832 12.8937 6.71457 11.7937 7.81457C11.1062 8.50207 10.3562 9.09894 9.54375 9.60519C8.73125 10.1114 7.875 10.5083 6.975 10.7958L4.05 7.85207V7.85207M9.225 5.60207C9.5125 5.88957 9.86563 6.03332 10.2844 6.03332C10.7031 6.03332 11.0563 5.88957 11.3438 5.60207C11.6312 5.31457 11.775 4.96144 11.775 4.54269C11.775 4.12394 11.6312 3.77082 11.3438 3.48332C11.0563 3.19582 10.7031 3.05207 10.2844 3.05207C9.86563 3.05207 9.5125 3.19582 9.225 3.48332C8.9375 3.77082 8.79375 4.12394 8.79375 4.54269C8.79375 4.96144 8.9375 5.31457 9.225 5.60207V5.60207M8.7 14.6208L7.5 11.8646C8.425 11.5021 9.21562 11.1271 9.87187 10.7396C10.5281 10.3521 11.2562 9.82082 12.0562 9.14582L12.2437 10.1208C12.2937 10.3708 12.2813 10.6177 12.2063 10.8614C12.1313 11.1052 12.0063 11.3146 11.8313 11.4896L8.7 14.6208V14.6208M1.40625 10.2521C1.84375 9.81457 2.375 9.59269 3 9.58644C3.625 9.58019 4.15625 9.79582 4.59375 10.2333C5.03125 10.6708 5.25 11.2021 5.25 11.8271C5.25 12.4521 5.03125 12.9833 4.59375 13.4208C4.28125 13.7333 3.75938 14.0021 3.02813 14.2271C2.29688 14.4521 1.2875 14.6521 0 14.8271C0.175 13.5396 0.375 12.5333 0.6 11.8083C0.825 11.0833 1.09375 10.5646 1.40625 10.2521V10.2521" fill="#C6BFFF"/>
</svg>
