<svg width="12" height="14" viewBox="0 0 12 14" fill="none" xmlns="http://www.w3.org/2000/svg">
<path d="M6 12C6.825 12 7.53125 11.7062 8.11875 11.1187C8.70625 10.5312 9 9.825 9 9V6C9 5.175 8.70625 4.46875 8.11875 3.88125C7.53125 3.29375 6.825 3 6 3C5.175 3 4.46875 3.29375 3.88125 3.88125C3.29375 4.46875 3 5.175 3 6V9C3 9.825 3.29375 10.5312 3.88125 11.1187C4.46875 11.7062 5.175 12 6 12V12M4.5 9.75H7.5V8.25H4.5V9.75V9.75M4.5 6.75H7.5V5.25H4.5V6.75V6.75M6 7.5V7.5V7.5V7.5V7.5V7.5V7.5V7.5V7.5V7.5V7.5V7.5M6 13.5C5.1875 13.5 4.43437 13.3 3.74062 12.9C3.04687 12.5 2.5 11.95 2.1 11.25H0V9.75H1.575C1.5375 9.5 1.51562 9.25 1.50937 9C1.50312 8.75 1.5 8.5 1.5 8.25H0V6.75H1.5C1.5 6.5 1.50312 6.25 1.50937 6C1.51562 5.75 1.5375 5.5 1.575 5.25H0V3.75H2.1C2.275 3.4625 2.47187 3.19375 2.69062 2.94375C2.90937 2.69375 3.1625 2.475 3.45 2.2875L2.25 1.05L3.3 0L4.9125 1.6125C5.2625 1.5 5.61875 1.44375 5.98125 1.44375C6.34375 1.44375 6.7 1.5 7.05 1.6125L8.7 0L9.75 1.05L8.5125 2.2875C8.8 2.475 9.05937 2.69063 9.29062 2.93438C9.52187 3.17813 9.725 3.45 9.9 3.75H12V5.25H10.425C10.4625 5.5 10.4844 5.75 10.4906 6C10.4969 6.25 10.5 6.5 10.5 6.75H12V8.25H10.5C10.5 8.5 10.4969 8.75 10.4906 9C10.4844 9.25 10.4625 9.5 10.425 9.75H12V11.25H9.9C9.5 11.95 8.95312 12.5 8.25937 12.9C7.56562 13.3 6.8125 13.5 6 13.5V13.5" fill="#E5E2E3"/>
</svg>
