<svg width="12" height="16" viewBox="0 0 12 16" fill="none" xmlns="http://www.w3.org/2000/svg">
<path d="M1.5 12.8062L2.98125 12.2063C2.85625 11.8438 2.74063 11.475 2.63438 11.1C2.52813 10.725 2.44375 10.35 2.38125 9.975L1.5 10.575V10.575V10.575V12.8062V12.8062M4.5 12.0188H7.5C7.725 11.5188 7.90625 10.9094 8.04375 10.1906C8.18125 9.47188 8.25 8.7375 8.25 7.9875C8.25 6.75 8.04375 5.57813 7.63125 4.47188C7.21875 3.36563 6.675 2.5125 6 1.9125C5.325 2.5125 4.78125 3.36563 4.36875 4.47188C3.95625 5.57813 3.75 6.75 3.75 7.9875C3.75 8.7375 3.81875 9.47188 3.95625 10.1906C4.09375 10.9094 4.275 11.5188 4.5 12.0188V12.0188M6 8.26875C5.5875 8.26875 5.23438 8.12187 4.94063 7.82812C4.64688 7.53438 4.5 7.18125 4.5 6.76875C4.5 6.35625 4.64688 6.00312 4.94063 5.70937C5.23438 5.41562 5.5875 5.26875 6 5.26875C6.4125 5.26875 6.76562 5.41562 7.05937 5.70937C7.35312 6.00312 7.5 6.35625 7.5 6.76875C7.5 7.18125 7.35312 7.53438 7.05937 7.82812C6.76562 8.12187 6.4125 8.26875 6 8.26875V8.26875M10.5 12.8062V10.575V10.575V10.575L9.61875 9.975C9.55625 10.35 9.47188 10.725 9.36563 11.1C9.25938 11.475 9.14375 11.8438 9.01875 12.2063L10.5 12.8062V12.8062M6 0C7.2375 0.9 8.17188 2.04375 8.80313 3.43125C9.43438 4.81875 9.75 6.43125 9.75 8.26875V8.26875V8.26875L11.325 9.31875C11.5375 9.45625 11.7031 9.6375 11.8219 9.8625C11.9406 10.0875 12 10.325 12 10.575V15.0188L8.26875 13.5188H3.73125L0 15.0188V10.575C0 10.325 0.059375 10.0875 0.178125 9.8625C0.296875 9.6375 0.4625 9.45625 0.675 9.31875L2.25 8.26875V8.26875V8.26875C2.25 6.43125 2.56563 4.81875 3.19688 3.43125C3.82813 2.04375 4.7625 0.9 6 0V0" fill="#E5E2E3"/>
</svg>
